<?xml version="1.0" encoding="utf-8"?>
<!-- Generator: Adobe Illustrator 21.1.0, SVG Export Plug-In . SVG Version: 6.00 Build 0)  -->
<svg version="1.1" id="Layer_1" xmlns="http://www.w3.org/2000/svg" xmlns:xlink="http://www.w3.org/1999/xlink" x="0px" y="0px"
	 viewBox="0 0 850.4 850.4" style="enable-background:new 0 0 850.4 850.4;" xml:space="preserve">
<style type="text/css">
	.st0{fill:#FFD100;}
</style>
<g>
	<g>
		<path class="st0" d="M425.2,850.4C190.7,850.4,0,659.6,0,425.2S190.7,0,425.2,0c234.5,0,425.2,190.7,425.2,425.2
			S659.6,850.4,425.2,850.4z M425.2,86.2c-186.9,0-339,152.1-339,339s152.1,339,339,339c186.9,0,339-152.1,339-339
			S612.1,86.2,425.2,86.2z"/>
	</g>
	<path class="st0" d="M468.6,519.5h-86.8c-1.6,0-2.8-1.3-2.8-2.8v-352c0-1.6,1.3-2.8,2.8-2.8h86.8c1.6,0,2.8,1.3,2.8,2.8v352
		C471.4,518.3,470.1,519.5,468.6,519.5z"/>
	<path class="st0" d="M468.6,688.5h-86.7c-1.6,0-2.8-1.3-2.8-2.8v-86.7c0-1.6,1.3-2.8,2.8-2.8h86.7c1.6,0,2.8,1.3,2.8,2.8v86.7
		C471.4,687.3,470.1,688.5,468.6,688.5z"/>
</g>
</svg>
