<?xml version="1.0" encoding="utf-8"?>
<!-- Generator: Adobe Illustrator 21.1.0, SVG Export Plug-In . SVG Version: 6.00 Build 0)  -->
<svg version="1.1" id="Layer_1" xmlns="http://www.w3.org/2000/svg" xmlns:xlink="http://www.w3.org/1999/xlink" x="0px" y="0px"
	 viewBox="0 0 1156.27002 504.54364" style="enable-background:new 0 0 1156.27002 504.54364;" xml:space="preserve">
<style type="text/css">
	.st0{fill:#81B616;}
</style>
<g>
	<path d="M216.848389,426.47821c-76.610352,0-138.720947-62.075073-138.781494-138.671265
		c0.060547-76.596207,62.171143-138.67128,138.781494-138.67128c43.141968,0,81.685425,19.685791,107.139893,50.563965
		l55.35437-55.354126c-39.731079-44.933228-97.798462-73.275269-162.494263-73.275269
		c-119.6875,0-216.724609,96.96582-216.845581,216.625015H0c0,0.037354,0.001465,0.074341,0.001465,0.111694
		S0,287.881287,0,287.91864h0.002808c0.120972,119.65918,97.158081,216.625,216.845581,216.625
		c64.695801,0,122.763184-28.342041,162.494263-73.275269l-55.35437-55.354126
		C298.533813,406.792419,259.990356,426.47821,216.848389,426.47821z"/>
	<polygon points="1006.115112,73.526588 858.778748,229.637268 708.807617,73.526588 629.812927,73.526588 629.812927,504.406982 
		708.807617,504.406982 708.807617,191.38121 802.921082,285.494965 858.778748,341.352692 914.636597,285.494965 
		1006.115112,194.016357 1006.115112,504.406982 1085.109863,504.406982 1085.109863,73.526588 	"/>
	<g>
		<path d="M1129.150879,472.366211l1.933838,2.518463c-3.717163,2.998383-5.576782,6.851318-5.576782,11.558105
			c0,3.838165,1.349243,7.14386,4.047607,9.916779c2.698486,2.773438,6.00415,4.160004,9.91687,4.160004
			s7.180908-1.356354,9.804199-4.070007c2.623901-2.713196,3.935059-6.108856,3.935059-10.186737
			c0-4.557068-1.768677-8.349518-5.306641-11.378143l1.933838-2.518463c2.098755,1.589417,3.695312,3.597748,4.789551,6.026245
			c1.094849,2.428741,1.641602,5.112427,1.641602,8.050323c0,5.126923-1.619141,9.325012-4.8573,12.592621
			c-3.238037,3.26828-7.330688,4.902191-12.277588,4.902191c-3.05835,0-5.883911-0.756958-8.477661-2.271149
			c-2.593018-1.513702-4.62439-3.612732-6.093872-6.296417c-1.468628-2.682953-2.203735-5.56897-2.203735-8.657318
			c0-3.08786,0.584595-5.861267,1.75415-8.320251C1125.283203,475.934448,1126.962646,473.925385,1129.150879,472.366211z"/>
		<path d="M1123.169434,461.393005v-3.283081h29.187866v-12.412659h3.103149v15.69574H1123.169434z"/>
		<path d="M1123.169434,436.568176v-3.238098h32.291016v3.238098H1123.169434z"/>
		<path d="M1129.150879,391.369873l1.933838,2.518463c-3.717163,2.998383-5.576782,6.851318-5.576782,11.558105
			c0,3.838165,1.349243,7.143829,4.047607,9.916779c2.698486,2.773407,6.00415,4.160004,9.91687,4.160004
			s7.180908-1.356354,9.804199-4.070007c2.623901-2.713196,3.935059-6.108856,3.935059-10.186737
			c0-4.557068-1.768677-8.349548-5.306641-11.378143l1.933838-2.518463c2.098755,1.589386,3.695312,3.597748,4.789551,6.026245
			c1.094849,2.428741,1.641602,5.112396,1.641602,8.050323c0,5.126923-1.619141,9.325012-4.8573,12.59259
			c-3.238037,3.268311-7.330688,4.902222-12.277588,4.902222c-3.05835,0-5.883911-0.756958-8.477661-2.271149
			c-2.593018-1.513702-4.62439-3.612732-6.093872-6.296417c-1.468628-2.682953-2.203735-5.56897-2.203735-8.657318
			c0-3.08786,0.584595-5.861298,1.75415-8.320251C1125.283203,394.93811,1126.962646,392.929047,1129.150879,391.369873z"/>
		<path d="M1123.169434,380.396881v-3.328033h12.0979l-12.0979-12.862579v-4.362335l14.481445,15.515991l17.80957-16.730225
			v4.272369l-15.066162,14.166779h15.066162v3.328033H1123.169434z"/>
		<path d="M1126.317505,336.77301h-3.148071v-17.719543h3.148071v7.19574h29.142944v3.283051h-29.142944V336.77301z"/>
		<path d="M1139.449829,311.318298c-3.11792,0-5.996338-0.749115-8.63501-2.248749
			c-2.637939-1.498962-4.706543-3.552765-6.206177-6.161224c-1.498901-2.608459-2.248779-5.449005-2.248779-8.522583
			c0-3.072876,0.742188-5.936523,2.226196-8.589966c1.484131-2.653442,3.538208-4.737,6.161377-6.251434
			c2.623901-1.513458,5.472168-2.271149,8.545044-2.271149c3.073486,0,5.921753,0.749817,8.544922,2.248779
			c2.623901,1.499664,4.685059,3.560608,6.183838,6.183838c1.499634,2.623932,2.248779,5.472076,2.248779,8.544952
			c0,3.073578-0.742188,5.929596-2.226196,8.567566c-1.484131,2.638702-3.530396,4.715118-6.138794,6.228821
			C1145.296265,310.56134,1142.478638,311.318298,1139.449829,311.318298z M1139.315063,280.64624
			c-3.86792,0-7.135498,1.342316-9.804443,4.025269c-2.668213,2.683685-4.002686,5.91391-4.002686,9.69162
			c0,3.86792,1.342285,7.098846,4.025269,9.691833c2.683716,2.593689,5.952026,3.89032,9.804199,3.89032
			c3.852905,0,7.113647-1.333771,9.78186-4.002686c2.668945-2.668182,4.002686-5.89151,4.002686-9.66922
			c0-3.777954-1.304321-6.993408-3.91272-9.646851C1146.600708,281.973083,1143.302734,280.64624,1139.315063,280.64624z"/>
		<path d="M1155.460449,252.043686l-32.291016-4.58728v-0.494888l26.489502-13.132248l-26.489502-13.042282v-0.494644
			l32.291016-4.632278v3.193085l-23.116455,3.148087l23.116455,11.423355v0.809586l-23.296387,11.558075l23.296387,3.148102
			V252.043686z"/>
		<path d="M1139.449829,206.171036c-3.11792,0-5.996338-0.749115-8.63501-2.248779
			c-2.637939-1.498947-4.706543-3.552765-6.206177-6.161224c-1.498901-2.608444-2.248779-5.44899-2.248779-8.522583
			c0-3.072876,0.742188-5.936508,2.226196-8.589951c1.484131-2.653442,3.538208-4.737015,6.161377-6.251434
			c2.623901-1.513474,5.472168-2.271149,8.545044-2.271149c3.073486,0,5.921753,0.749832,8.544922,2.248779
			c2.623901,1.499649,4.685059,3.560608,6.183838,6.183823c1.499634,2.623932,2.248779,5.472092,2.248779,8.544968
			c0,3.073578-0.742188,5.929596-2.226196,8.567566c-1.484131,2.638687-3.530396,4.715118-6.138794,6.228821
			C1145.296265,205.414062,1142.478638,206.171036,1139.449829,206.171036z M1139.315063,175.498962
			c-3.86792,0-7.135498,1.3423-9.804443,4.025269c-2.668213,2.68367-4.002686,5.913895-4.002686,9.691605
			c0,3.867935,1.342285,7.098862,4.025269,9.691849c2.683716,2.593689,5.952026,3.890305,9.804199,3.890305
			c3.852905,0,7.113647-1.33374,9.78186-4.00267c2.668945-2.668198,4.002686-5.89151,4.002686-9.66922
			c0-3.777954-1.304321-6.993408-3.91272-9.646851C1146.600708,176.82579,1143.302734,175.498962,1139.315063,175.498962z"/>
		<path d="M1155.460449,161.152939h-32.291016v-0.719604l24.735596-21.452271h-24.735596v-3.193314h32.291016v0.719589
			l-24.420654,21.317535h24.420654V161.152939z"/>
		<path d="M1123.169434,123.375572v-18.529121h3.193115v15.291046h10.074097v-15.156075h3.148071v15.156075h12.682617v-15.156075
			h3.193115v18.39415H1123.169434z"/>
		<path d="M1123.169434,97.336014v-3.732719l13.312256-8.23027l-13.312256-8.14006v-3.732956l16.86499,10.254097h15.426025v3.148094
			h-15.426025L1123.169434,97.336014z"/>
	</g>
	<path class="st0" d="M521.5177,127.321068c23.468994-11.706848,48.565491-26.643265,48.565491-53.151665
		c0-30.711521-24.026672-53.508247-51.520508-60.479496V0h-35.42157v13.615818
		c-27.944244,6.915899-48.428589,29.892105-51.021301,59.746082h40.697205
		c2.713135-14.801666,13.701294-24.759312,28.216675-24.759312c15.736267,0,28.487915,10.764927,28.487915,25.701229
		c0,13.859962-21.162567,22.740837-30.794342,27.450439c-29.708679,14.129234-66.06485,29.065262-66.607452,65.531372v37.138916
		h51.021301v13.814682h35.42157v-13.814682h51.520508v-37.138916h-97.266174
		C472.817017,146.428635,506.867065,134.587265,521.5177,127.321068z"/>
</g>
</svg>
